<?xml version="1.0" encoding="utf-8"?>
<!-- Generator: Adobe Illustrator 25.0.0, SVG Export Plug-In . SVG Version: 6.00 Build 0)  -->
<svg version="1.1" id="Layer_1" xmlns="http://www.w3.org/2000/svg" xmlns:xlink="http://www.w3.org/1999/xlink" x="0px" y="0px"
	 viewBox="0 0 783 783" style="enable-background:new 0 0 783 783;" xml:space="preserve">
<style type="text/css">
	.st0{fill:url(#SVGID_1_);}
	.st1{fill:#FEFBA8;stroke:#EAAF0A;stroke-width:6.9911;stroke-miterlimit:10;}
</style>
<linearGradient id="SVGID_1_" gradientUnits="userSpaceOnUse" x1="391.5" y1="814.4991" x2="391.5" y2="31.4992" gradientTransform="matrix(1 0 0 -1 0 791.8898)">
	<stop  offset="9.862935e-02" style="stop-color:#FAD582"/>
	<stop  offset="0.153" style="stop-color:#F9CF81"/>
	<stop  offset="0.2233" style="stop-color:#F7BF7D"/>
	<stop  offset="0.3023" style="stop-color:#F3A578"/>
	<stop  offset="0.3877" style="stop-color:#ED7F70"/>
	<stop  offset="0.4772" style="stop-color:#E65067"/>
	<stop  offset="0.5301" style="stop-color:#E13160"/>
	<stop  offset="0.5803" style="stop-color:#B92E5F"/>
	<stop  offset="0.6597" style="stop-color:#812A5E"/>
	<stop  offset="0.7332" style="stop-color:#54265D"/>
	<stop  offset="0.7985" style="stop-color:#34245D"/>
	<stop  offset="0.8531" style="stop-color:#20235C"/>
	<stop  offset="0.8904" style="stop-color:#19225C"/>
</linearGradient>
<circle class="st0" cx="391.5" cy="391.5" r="391.5"/>
<path class="st1" d="M518.4,89.5c2.2,0.6,5.4,1.8,7,4.7c2.7,4.9-1,11.6-2.3,14c-24.7,45.5-44.4,93.6-67.6,139.8
	c-4.7,9.3-8,16.8-16.3,32.6c-4,7.7-7.7,15.6-11.7,23.3c-7.8,15.2-12.7,23.7-9.3,28c1,1.3,2.6,2,4.7,2.3c10.3,1.4,133-0.8,152.6-1.2
	c2.7,1.9,5.4,3.9,8.2,5.8c2.1,4.5,3.7,10.3,2.3,16.3c-1.1,5.1-3.9,8.4-4.7,9.3l0,0c-4,5.7-8.8,9-9.3,9.3
	c-10.4,7.4-286.1,291.2-298.3,307.6c-1.2,1.6-3.1,3.4-7,7c-2.6,2.4-5.8,5.2-9.3,4.7l0,0c-1.9-0.3-3.9-1.2-4.7-2.3
	c-2-2.7,1.9-8.6,2.3-9.3c4.9-7.7,49-100,111.9-233c0.1-0.1,1.3-2.4,0-4.7c-0.9-1.6-2.8-2.5-4.7-2.3c-21.3,0.1-148.2,0.4-158.5-2.3
	c-2.7-0.7-4.7-2.3-4.7-2.3c-4.1-3.4-5.3-9.4-4.7-14c0.9-6.9,5.9-10.8,7-11.7C307.1,303.8,412.8,196.6,518.4,89.5z"/>
</svg>
