<?xml version="1.0" encoding="utf-8"?>
<!-- Generator: Adobe Illustrator 25.0.0, SVG Export Plug-In . SVG Version: 6.00 Build 0)  -->
<svg version="1.1" id="Layer_1" xmlns="http://www.w3.org/2000/svg" xmlns:xlink="http://www.w3.org/1999/xlink" x="0px" y="0px"
	 viewBox="0 0 4365.6 1080" style="enable-background:new 0 0 4365.6 1080;" xml:space="preserve">
<style type="text/css">
	.st0{fill:url(#SVGID_1_);}
	.st1{fill:#FEFBA8;stroke:#EAAF0A;stroke-width:7.0585;stroke-miterlimit:10;}
	.st2{display:none;}
	.st3{display:inline;}
	.st4{stroke:#000000;stroke-miterlimit:10;}
	.st5{fill:none;stroke:url(#SVGID_2_);stroke-miterlimit:10;}
	.st6{fill:none;stroke:url(#SVGID_3_);stroke-miterlimit:10;}
	.st7{fill:none;stroke:url(#SVGID_4_);stroke-miterlimit:10;}
	.st8{fill:none;stroke:url(#SVGID_5_);stroke-miterlimit:10;}
	.st9{fill:none;stroke:url(#SVGID_6_);stroke-miterlimit:10;}
	.st10{fill:none;stroke:url(#SVGID_7_);stroke-miterlimit:10;}
	.st11{fill:none;stroke:url(#SVGID_8_);stroke-miterlimit:10;}
	.st12{fill:none;stroke:url(#SVGID_9_);stroke-miterlimit:10;}
	.st13{fill:none;stroke:url(#SVGID_10_);stroke-miterlimit:10;}
	.st14{fill:none;stroke:url(#SVGID_11_);stroke-miterlimit:10;}
	.st15{fill:#FFFFFF;}
	.st16{fill:url(#SVGID_12_);}
	.st17{fill:url(#SVGID_13_);}
	.st18{fill:url(#SVGID_14_);}
	.st19{fill:url(#SVGID_15_);}
	.st20{fill:url(#SVGID_16_);}
	.st21{fill:url(#SVGID_17_);}
	.st22{fill:url(#SVGID_18_);}
	.st23{fill:url(#SVGID_19_);}
	.st24{fill:url(#SVGID_20_);}
	.st25{fill:url(#SVGID_21_);}
</style>
<g>
	
		<linearGradient id="SVGID_1_" gradientUnits="userSpaceOnUse" x1="506.1702" y1="984.9551" x2="506.1702" y2="194.402" gradientTransform="matrix(1 0 0 -1 0 1080)">
		<stop  offset="9.862935e-02" style="stop-color:#FAD582"/>
		<stop  offset="0.153" style="stop-color:#F9CF81"/>
		<stop  offset="0.2233" style="stop-color:#F7BF7D"/>
		<stop  offset="0.3023" style="stop-color:#F3A578"/>
		<stop  offset="0.3877" style="stop-color:#ED7F70"/>
		<stop  offset="0.4772" style="stop-color:#E65067"/>
		<stop  offset="0.5301" style="stop-color:#E13160"/>
		<stop  offset="0.5803" style="stop-color:#B92E5F"/>
		<stop  offset="0.6597" style="stop-color:#812A5E"/>
		<stop  offset="0.7332" style="stop-color:#54265D"/>
		<stop  offset="0.7985" style="stop-color:#34245D"/>
		<stop  offset="0.8531" style="stop-color:#20235C"/>
		<stop  offset="0.8904" style="stop-color:#19225C"/>
	</linearGradient>
	<circle class="st0" cx="506.2" cy="513.1" r="395.3"/>
	<path class="st1" d="M634.3,208.2c2.2,0.6,5.5,1.8,7.1,4.7c2.7,4.9-1,11.7-2.3,14.1c-24.9,45.9-44.8,94.5-68.3,141.1
		c-4.7,9.4-8.1,17-16.5,32.9c-4,7.8-7.8,15.8-11.8,23.5c-7.9,15.3-12.8,23.9-9.4,28.3c1,1.3,2.6,2,4.7,2.3
		c10.4,1.4,134.3-0.8,154.1-1.2c2.7,1.9,5.5,3.9,8.3,5.9c2.1,4.5,3.7,10.4,2.3,16.5c-1.1,5.1-3.9,8.5-4.7,9.4l0,0
		c-4,5.8-8.9,9.1-9.4,9.4c-10.5,7.5-288.9,294-301.2,310.6c-1.2,1.6-3.1,3.4-7.1,7.1c-2.6,2.4-5.9,5.3-9.4,4.7l0,0
		c-1.9-0.3-3.9-1.2-4.7-2.3c-2-2.7,1.9-8.7,2.3-9.4c4.9-7.8,49.5-101,113-235.2c0.1-0.1,1.3-2.4,0-4.7c-0.9-1.6-2.8-2.5-4.7-2.3
		c-21.5,0.1-149.6,0.4-160-2.3c-2.7-0.7-4.7-2.3-4.7-2.3c-4.1-3.4-5.4-9.5-4.7-14.1c0.9-7,6-10.9,7.1-11.8
		C421,424.6,527.7,316.4,634.3,208.2z"/>
</g>
<g class="st2">
	<g class="st3">
		<g>
			<path class="st4" d="M723.8,2420.1v-648h164c28.3,0,54.4,2.4,78.4,7.2c24,4.8,45.2,13.3,63.6,25.6c18.4,12.3,32.5,29.2,42.4,50.8
				c9.9,21.6,14.8,49.7,14.8,84.4c0,26.1-3.7,48.4-11.2,66.8c-7.5,18.4-18.1,32.9-32,43.6c-13.9,10.7-30.9,17.9-51.2,21.6
				c25.1,3.7,46.1,12.3,63.2,25.6c17.1,13.3,29.9,30.9,38.4,52.8c8.5,21.9,12.8,48.3,12.8,79.2c0,32.5-4.1,60.8-12.4,84.8
				c-8.3,24-20.4,43.7-36.4,59.2c-16,15.5-35.7,27.1-59.2,34.8c-23.5,7.7-50.7,11.6-81.6,11.6H723.8z M855.8,2033.7h32.8
				c22.9,0,40.3-3.3,52-10c11.7-6.7,19.9-16.8,24.4-30.4c4.5-13.6,6.8-30.3,6.8-50c0-19.7-3.3-35.6-10-47.6
				c-6.7-12-16.8-20.7-30.4-26c-13.6-5.3-30.8-8-51.6-8h-24V2033.7z M855.8,2327.3h36.8c33.1,0,55.9-8.3,68.4-24.8
				c12.5-16.5,18.8-41.3,18.8-74.4c0-25.6-2.9-46-8.8-61.2c-5.9-15.2-15.3-26.4-28.4-33.6c-13.1-7.2-30.5-10.8-52.4-10.8h-34.4
				V2327.3z"/>
			<path class="st4" d="M1322.2,2428.1c-33.1,0-61.3-6-84.8-18c-23.5-12-41.2-29.5-53.2-52.4c-12-22.9-18-51.5-18-85.6v-166.4
				c0-34.1,6-62.7,18-85.6c12-22.9,29.7-40.4,53.2-52.4c23.5-12,51.7-18,84.8-18c33.1,0,61.3,6,84.8,18c23.5,12,41.3,29.5,53.6,52.4
				c12.3,22.9,18.4,51.5,18.4,85.6v166.4c0,34.1-6.1,62.7-18.4,85.6c-12.3,22.9-30.1,40.4-53.6,52.4
				C1383.5,2422.1,1355.3,2428.1,1322.2,2428.1z M1323,2346.5c10.1,0,17.9-2.8,23.2-8.4c5.3-5.6,8.8-13.3,10.4-23.2
				c1.6-9.9,2.4-21.2,2.4-34v-183.2c0-13.3-0.8-24.8-2.4-34.4c-1.6-9.6-5.1-17.3-10.4-23.2c-5.3-5.9-13.1-8.8-23.2-8.8
				c-10.1,0-17.9,2.9-23.2,8.8c-5.3,5.9-8.9,13.6-10.8,23.2c-1.9,9.6-2.8,21.1-2.8,34.4v183.2c0,12.8,0.9,24.1,2.8,34
				c1.9,9.9,5.5,17.6,10.8,23.2C1305.1,2343.7,1312.9,2346.5,1323,2346.5z"/>
			<path class="st4" d="M1558.2,2420.1v-648H1679v648H1558.2z"/>
			<path class="st4" d="M1903.8,2424.9c-32.5,0-57.7-4.9-75.6-14.8c-17.9-9.9-30.3-24.1-37.2-42.8c-6.9-18.7-10.4-41.3-10.4-68
				v-262.4H1735v-79.2h45.6v-140h121.6v140h68v79.2h-68v251.2c0,14.4,3.7,24.7,11.2,30.8c7.5,6.1,17.6,9.2,30.4,9.2
				c6.4,0,12.5-0.4,18.4-1.2c5.9-0.8,11.2-1.5,16-2v94.4c-8,1.1-18.8,2.3-32.4,3.6C1932.2,2424.2,1918.2,2424.9,1903.8,2424.9z"/>
			<path class="st4" d="M2036.6,1996.1l-11.2-39.2c19.7-0.5,32.7-7.6,38.8-21.2c6.1-13.6,9.2-31.6,9.2-54h-53.6v-109.6h110.4
				c0,15.5,0,30.4,0,44.8c0,14.4-0.3,28.3-0.8,41.6c-1.6,44.8-8.7,78.8-21.2,102C2095.7,1983.7,2071.8,1995.6,2036.6,1996.1z"/>
			<path class="st4" d="M2330.2,2428.1c-40,0-72.9-9.7-98.8-29.2c-25.9-19.5-46-49.5-60.4-90l84.8-35.2c8,22.4,17.6,39.9,28.8,52.4
				c11.2,12.5,24.3,18.8,39.2,18.8c11.2,0,19.6-2.5,25.2-7.6c5.6-5.1,8.4-12.1,8.4-21.2c0-12.8-4.3-24.3-12.8-34.4
				c-8.5-10.1-23.7-24.3-45.6-42.4l-43.2-36.8c-22.4-19.2-40.4-38.3-54-57.2c-13.6-18.9-20.4-42.5-20.4-70.8
				c0-25.1,6.3-46.9,18.8-65.6c12.5-18.7,29.3-33.2,50.4-43.6c21.1-10.4,43.9-15.6,68.4-15.6c38.4,0,69.9,10.8,94.4,32.4
				c24.5,21.6,41.3,50.8,50.4,87.6l-80.8,35.2c-2.7-11.7-6.8-22.8-12.4-33.2c-5.6-10.4-12.4-19.1-20.4-26c-8-6.9-17.3-10.4-28-10.4
				c-9.6,0-17.3,2.9-23.2,8.8c-5.9,5.9-8.8,13.3-8.8,22.4c0,9.6,4.9,19.7,14.8,30.4c9.9,10.7,23.6,23.5,41.2,38.4l43.2,38.4
				c12.8,11.2,25.3,23.1,37.6,35.6c12.3,12.5,22.4,26.4,30.4,41.6s12,32.7,12,52.4c0,26.7-6.4,49.3-19.2,68
				c-12.8,18.7-29.7,32.8-50.8,42.4C2378.3,2423.3,2355.3,2428.1,2330.2,2428.1z"/>
			<path class="st4" d="M2733.4,2420.1v-648h164c28.3,0,54.4,2.4,78.4,7.2s45.2,13.3,63.6,25.6c18.4,12.3,32.5,29.2,42.4,50.8
				c9.9,21.6,14.8,49.7,14.8,84.4c0,26.1-3.7,48.4-11.2,66.8c-7.5,18.4-18.1,32.9-32,43.6c-13.9,10.7-30.9,17.9-51.2,21.6
				c25.1,3.7,46.1,12.3,63.2,25.6c17.1,13.3,29.9,30.9,38.4,52.8c8.5,21.9,12.8,48.3,12.8,79.2c0,32.5-4.1,60.8-12.4,84.8
				c-8.3,24-20.4,43.7-36.4,59.2c-16,15.5-35.7,27.1-59.2,34.8c-23.5,7.7-50.7,11.6-81.6,11.6H2733.4z M2865.4,2033.7h32.8
				c22.9,0,40.3-3.3,52-10c11.7-6.7,19.9-16.8,24.4-30.4c4.5-13.6,6.8-30.3,6.8-50c0-19.7-3.3-35.6-10-47.6
				c-6.7-12-16.8-20.7-30.4-26c-13.6-5.3-30.8-8-51.6-8h-24V2033.7z M2865.4,2327.3h36.8c33.1,0,55.9-8.3,68.4-24.8
				c12.5-16.5,18.8-41.3,18.8-74.4c0-25.6-2.9-46-8.8-61.2c-5.9-15.2-15.3-26.4-28.4-33.6c-13.1-7.2-30.5-10.8-52.4-10.8h-34.4
				V2327.3z"/>
			<path class="st4" d="M3191,2420.1v-648h120.8v648H3191z"/>
			<path class="st4" d="M3543,2428.1c-33.1,0-61.3-6-84.8-18c-23.5-12-41.2-29.5-53.2-52.4c-12-22.9-18-51.5-18-85.6v-166.4
				c0-34.1,6-62.7,18-85.6c12-22.9,29.7-40.4,53.2-52.4c23.5-12,51.7-18,84.8-18c33.1,0,61.3,6,84.8,18c23.5,12,41.3,29.5,53.6,52.4
				c12.3,22.9,18.4,51.5,18.4,85.6v166.4c0,34.1-6.1,62.7-18.4,85.6c-12.3,22.9-30.1,40.4-53.6,52.4
				C3604.3,2422.1,3576,2428.1,3543,2428.1z M3543.8,2346.5c10.1,0,17.9-2.8,23.2-8.4c5.3-5.6,8.8-13.3,10.4-23.2
				c1.6-9.9,2.4-21.2,2.4-34v-183.2c0-13.3-0.8-24.8-2.4-34.4c-1.6-9.6-5.1-17.3-10.4-23.2c-5.3-5.9-13.1-8.8-23.2-8.8
				c-10.1,0-17.9,2.9-23.2,8.8c-5.3,5.9-8.9,13.6-10.8,23.2c-1.9,9.6-2.8,21.1-2.8,34.4v183.2c0,12.8,0.9,24.1,2.8,34
				c1.9,9.9,5.5,17.6,10.8,23.2C3525.9,2343.7,3533.6,2346.5,3543.8,2346.5z"/>
			<path class="st4" d="M3918.2,2576.9c-33.1,0-62.3-3.3-87.6-10c-25.3-6.7-44.9-16.9-58.8-30.8c-13.9-13.9-20.8-31.2-20.8-52
				c0-16,3.6-30.1,10.8-42.4c7.2-12.3,17.2-22.9,30-32c12.8-9.1,27.2-16.5,43.2-22.4l48,8c-6.4,5.3-12.3,10.7-17.6,16
				c-5.3,5.3-9.7,10.9-13.2,16.8c-3.5,5.9-5.2,12.8-5.2,20.8c0,12.3,6.5,21.3,19.6,27.2c13.1,5.9,35.1,8.8,66,8.8
				c26.7,0,47.2-2.5,61.6-7.6c14.4-5.1,21.6-14.5,21.6-28.4c0-7.5-1.9-13.6-5.6-18.4c-3.7-4.8-10-8.7-18.8-11.6s-20.9-5.2-36.4-6.8
				l-112-13.6c-23.5-3.2-42-11.6-55.6-25.2c-13.6-13.6-20.4-30.3-20.4-50c0-18.7,5.7-35.7,17.2-51.2c11.5-15.5,26.5-30.9,45.2-46.4
				l41.6,24.8c-5.3,5.9-10,11.9-14,18c-4,6.1-6,12.7-6,19.6c0,6.4,3.2,11.5,9.6,15.2c6.4,3.7,17.3,6.4,32.8,8l103.2,12.8
				c38.4,4.8,66.8,17.6,85.2,38.4c18.4,20.8,27.6,48,27.6,81.6c0,28.8-6.4,53.1-19.2,72.8c-12.8,19.7-33.2,34.7-61.2,44.8
				C4001,2571.8,3964,2576.9,3918.2,2576.9z M3925.4,2272.1c-35.2,0-64.7-6.5-88.4-19.6c-23.7-13.1-41.6-31.6-53.6-55.6
				s-18-52.5-18-85.6c0-34.7,6.1-64,18.4-88c12.3-24,30.3-42.3,54-54.8c23.7-12.5,52.9-18.8,87.6-18.8c33.1,0,60.9,6.7,83.6,20
				c22.7,13.3,39.9,32,51.6,56c11.7,24,17.6,52.8,17.6,86.4c0,33.1-5.6,61.5-16.8,85.2c-11.2,23.7-28,42.1-50.4,55.2
				C3988.6,2265.6,3960,2272.1,3925.4,2272.1z M3925.4,2197.7c8,0,14.5-1.6,19.6-4.8c5.1-3.2,8.9-8.3,11.6-15.2
				c2.7-6.9,4.5-15.9,5.6-26.8c1.1-10.9,1.6-24.1,1.6-39.6c0-15.5-0.5-28.7-1.6-39.6c-1.1-10.9-2.9-20-5.6-27.2
				c-2.7-7.2-6.5-12.4-11.6-15.6c-5.1-3.2-11.6-4.8-19.6-4.8s-14.7,1.6-20,4.8c-5.3,3.2-9.5,8.3-12.4,15.2c-2.9,6.9-4.9,16-6,27.2
				c-1.1,11.2-1.6,24.5-1.6,40c0,14.9,0.5,27.9,1.6,38.8c1.1,10.9,2.9,19.9,5.6,26.8c2.7,6.9,6.7,12.1,12,15.6
				C3909.9,2196,3916.8,2197.7,3925.4,2197.7z M4052.6,2031.3l-25.6-34.4c7.5-13.9,17.5-25.6,30-35.2c12.5-9.6,28.7-18.9,48.4-28
				l28.8,60.8c-5.3,1.6-13.5,4.7-24.4,9.2c-10.9,4.5-21.9,9.3-32.8,14.4C4066,2023.2,4057.9,2027.6,4052.6,2031.3z"/>
		</g>
	</g>
	<g class="st3">
		<linearGradient id="SVGID_2_" gradientUnits="userSpaceOnUse" x1="2430.4404" y1="1761.8918" x2="2421.6274" y2="2560.9414">
			<stop  offset="0" style="stop-color:#5C36BC"/>
			<stop  offset="1" style="stop-color:#422788"/>
		</linearGradient>
		<path class="st5" d="M723.8,2420.1v-648h164c28.3,0,54.4,2.4,78.4,7.2c24,4.8,45.2,13.3,63.6,25.6c18.4,12.3,32.5,29.2,42.4,50.8
			c9.9,21.6,14.8,49.7,14.8,84.4c0,26.1-3.7,48.4-11.2,66.8c-7.5,18.4-18.1,32.9-32,43.6c-13.9,10.7-30.9,17.9-51.2,21.6
			c25.1,3.7,46.1,12.3,63.2,25.6c17.1,13.3,29.9,30.9,38.4,52.8c8.5,21.9,12.8,48.3,12.8,79.2c0,32.5-4.1,60.8-12.4,84.8
			c-8.3,24-20.4,43.7-36.4,59.2c-16,15.5-35.7,27.1-59.2,34.8c-23.5,7.7-50.7,11.6-81.6,11.6H723.8z M855.8,2033.7h32.8
			c22.9,0,40.3-3.3,52-10c11.7-6.7,19.9-16.8,24.4-30.4c4.5-13.6,6.8-30.3,6.8-50c0-19.7-3.3-35.6-10-47.6
			c-6.7-12-16.8-20.7-30.4-26c-13.6-5.3-30.8-8-51.6-8h-24V2033.7z M855.8,2327.3h36.8c33.1,0,55.9-8.3,68.4-24.8
			c12.5-16.5,18.8-41.3,18.8-74.4c0-25.6-2.9-46-8.8-61.2c-5.9-15.2-15.3-26.4-28.4-33.6c-13.1-7.2-30.5-10.8-52.4-10.8h-34.4
			V2327.3z"/>
		<linearGradient id="SVGID_3_" gradientUnits="userSpaceOnUse" x1="2430.4404" y1="1761.8918" x2="2421.6274" y2="2560.9414">
			<stop  offset="0" style="stop-color:#5C36BC"/>
			<stop  offset="1" style="stop-color:#422788"/>
		</linearGradient>
		<path class="st6" d="M1322.2,2428.1c-33.1,0-61.3-6-84.8-18c-23.5-12-41.2-29.5-53.2-52.4c-12-22.9-18-51.5-18-85.6v-166.4
			c0-34.1,6-62.7,18-85.6c12-22.9,29.7-40.4,53.2-52.4c23.5-12,51.7-18,84.8-18c33.1,0,61.3,6,84.8,18c23.5,12,41.3,29.5,53.6,52.4
			c12.3,22.9,18.4,51.5,18.4,85.6v166.4c0,34.1-6.1,62.7-18.4,85.6c-12.3,22.9-30.1,40.4-53.6,52.4
			C1383.5,2422.1,1355.3,2428.1,1322.2,2428.1z M1323,2346.5c10.1,0,17.9-2.8,23.2-8.4c5.3-5.6,8.8-13.3,10.4-23.2
			c1.6-9.9,2.4-21.2,2.4-34v-183.2c0-13.3-0.8-24.8-2.4-34.4c-1.6-9.6-5.1-17.3-10.4-23.2c-5.3-5.9-13.1-8.8-23.2-8.8
			c-10.1,0-17.9,2.9-23.2,8.8c-5.3,5.9-8.9,13.6-10.8,23.2c-1.9,9.6-2.8,21.1-2.8,34.4v183.2c0,12.8,0.9,24.1,2.8,34
			c1.9,9.9,5.5,17.6,10.8,23.2C1305.1,2343.7,1312.9,2346.5,1323,2346.5z"/>
		<linearGradient id="SVGID_4_" gradientUnits="userSpaceOnUse" x1="2430.4404" y1="1761.8918" x2="2421.6274" y2="2560.9414">
			<stop  offset="0" style="stop-color:#5C36BC"/>
			<stop  offset="1" style="stop-color:#422788"/>
		</linearGradient>
		<path class="st7" d="M1558.2,2420.1v-648H1679v648H1558.2z"/>
		<linearGradient id="SVGID_5_" gradientUnits="userSpaceOnUse" x1="2430.4404" y1="1761.8918" x2="2421.6274" y2="2560.9414">
			<stop  offset="0" style="stop-color:#5C36BC"/>
			<stop  offset="1" style="stop-color:#422788"/>
		</linearGradient>
		<path class="st8" d="M1903.8,2424.9c-32.5,0-57.7-4.9-75.6-14.8c-17.9-9.9-30.3-24.1-37.2-42.8c-6.9-18.7-10.4-41.3-10.4-68
			v-262.4H1735v-79.2h45.6v-140h121.6v140h68v79.2h-68v251.2c0,14.4,3.7,24.7,11.2,30.8c7.5,6.1,17.6,9.2,30.4,9.2
			c6.4,0,12.5-0.4,18.4-1.2c5.9-0.8,11.2-1.5,16-2v94.4c-8,1.1-18.8,2.3-32.4,3.6C1932.2,2424.2,1918.2,2424.9,1903.8,2424.9z"/>
		<linearGradient id="SVGID_6_" gradientUnits="userSpaceOnUse" x1="2430.4404" y1="1761.8918" x2="2421.6274" y2="2560.9414">
			<stop  offset="0" style="stop-color:#5C36BC"/>
			<stop  offset="1" style="stop-color:#422788"/>
		</linearGradient>
		<path class="st9" d="M2036.6,1996.1l-11.2-39.2c19.7-0.5,32.7-7.6,38.8-21.2c6.1-13.6,9.2-31.6,9.2-54h-53.6v-109.6h110.4
			c0,15.5,0,30.4,0,44.8c0,14.4-0.3,28.3-0.8,41.6c-1.6,44.8-8.7,78.8-21.2,102C2095.7,1983.7,2071.8,1995.6,2036.6,1996.1z"/>
		<linearGradient id="SVGID_7_" gradientUnits="userSpaceOnUse" x1="2430.4404" y1="1761.8918" x2="2421.6274" y2="2560.9414">
			<stop  offset="0" style="stop-color:#5C36BC"/>
			<stop  offset="1" style="stop-color:#422788"/>
		</linearGradient>
		<path class="st10" d="M2330.2,2428.1c-40,0-72.9-9.7-98.8-29.2c-25.9-19.5-46-49.5-60.4-90l84.8-35.2c8,22.4,17.6,39.9,28.8,52.4
			c11.2,12.5,24.3,18.8,39.2,18.8c11.2,0,19.6-2.5,25.2-7.6c5.6-5.1,8.4-12.1,8.4-21.2c0-12.8-4.3-24.3-12.8-34.4
			c-8.5-10.1-23.7-24.3-45.6-42.4l-43.2-36.8c-22.4-19.2-40.4-38.3-54-57.2c-13.6-18.9-20.4-42.5-20.4-70.8
			c0-25.1,6.3-46.9,18.8-65.6c12.5-18.7,29.3-33.2,50.4-43.6c21.1-10.4,43.9-15.6,68.4-15.6c38.4,0,69.9,10.8,94.4,32.4
			c24.5,21.6,41.3,50.8,50.4,87.6l-80.8,35.2c-2.7-11.7-6.8-22.8-12.4-33.2c-5.6-10.4-12.4-19.1-20.4-26c-8-6.9-17.3-10.4-28-10.4
			c-9.6,0-17.3,2.9-23.2,8.8c-5.9,5.9-8.8,13.3-8.8,22.4c0,9.6,4.9,19.7,14.8,30.4c9.9,10.7,23.6,23.5,41.2,38.4l43.2,38.4
			c12.8,11.2,25.3,23.1,37.6,35.6c12.3,12.5,22.4,26.4,30.4,41.6s12,32.7,12,52.4c0,26.7-6.4,49.3-19.2,68
			c-12.8,18.7-29.7,32.8-50.8,42.4C2378.3,2423.3,2355.3,2428.1,2330.2,2428.1z"/>
		<linearGradient id="SVGID_8_" gradientUnits="userSpaceOnUse" x1="2430.4404" y1="1761.8918" x2="2421.6274" y2="2560.9414">
			<stop  offset="0" style="stop-color:#5C36BC"/>
			<stop  offset="1" style="stop-color:#422788"/>
		</linearGradient>
		<path class="st11" d="M2733.4,2420.1v-648h164c28.3,0,54.4,2.4,78.4,7.2s45.2,13.3,63.6,25.6c18.4,12.3,32.5,29.2,42.4,50.8
			c9.9,21.6,14.8,49.7,14.8,84.4c0,26.1-3.7,48.4-11.2,66.8c-7.5,18.4-18.1,32.9-32,43.6c-13.9,10.7-30.9,17.9-51.2,21.6
			c25.1,3.7,46.1,12.3,63.2,25.6c17.1,13.3,29.9,30.9,38.4,52.8c8.5,21.9,12.8,48.3,12.8,79.2c0,32.5-4.1,60.8-12.4,84.8
			c-8.3,24-20.4,43.7-36.4,59.2c-16,15.5-35.7,27.1-59.2,34.8c-23.5,7.7-50.7,11.6-81.6,11.6H2733.4z M2865.4,2033.7h32.8
			c22.9,0,40.3-3.3,52-10c11.7-6.7,19.9-16.8,24.4-30.4c4.5-13.6,6.8-30.3,6.8-50c0-19.7-3.3-35.6-10-47.6
			c-6.7-12-16.8-20.7-30.4-26c-13.6-5.3-30.8-8-51.6-8h-24V2033.7z M2865.4,2327.3h36.8c33.1,0,55.9-8.3,68.4-24.8
			c12.5-16.5,18.8-41.3,18.8-74.4c0-25.6-2.9-46-8.8-61.2c-5.9-15.2-15.3-26.4-28.4-33.6c-13.1-7.2-30.5-10.8-52.4-10.8h-34.4
			V2327.3z"/>
		<linearGradient id="SVGID_9_" gradientUnits="userSpaceOnUse" x1="2430.4404" y1="1761.8918" x2="2421.6274" y2="2560.9414">
			<stop  offset="0" style="stop-color:#5C36BC"/>
			<stop  offset="1" style="stop-color:#422788"/>
		</linearGradient>
		<path class="st12" d="M3191,2420.1v-648h120.8v648H3191z"/>
		<linearGradient id="SVGID_10_" gradientUnits="userSpaceOnUse" x1="2430.4404" y1="1761.8918" x2="2421.6274" y2="2560.9414">
			<stop  offset="0" style="stop-color:#5C36BC"/>
			<stop  offset="1" style="stop-color:#422788"/>
		</linearGradient>
		<path class="st13" d="M3543,2428.1c-33.1,0-61.3-6-84.8-18c-23.5-12-41.2-29.5-53.2-52.4c-12-22.9-18-51.5-18-85.6v-166.4
			c0-34.1,6-62.7,18-85.6c12-22.9,29.7-40.4,53.2-52.4c23.5-12,51.7-18,84.8-18c33.1,0,61.3,6,84.8,18c23.5,12,41.3,29.5,53.6,52.4
			c12.3,22.9,18.4,51.5,18.4,85.6v166.4c0,34.1-6.1,62.7-18.4,85.6c-12.3,22.9-30.1,40.4-53.6,52.4
			C3604.3,2422.1,3576,2428.1,3543,2428.1z M3543.8,2346.5c10.1,0,17.9-2.8,23.2-8.4c5.3-5.6,8.8-13.3,10.4-23.2
			c1.6-9.9,2.4-21.2,2.4-34v-183.2c0-13.3-0.8-24.8-2.4-34.4c-1.6-9.6-5.1-17.3-10.4-23.2c-5.3-5.9-13.1-8.8-23.2-8.8
			c-10.1,0-17.9,2.9-23.2,8.8c-5.3,5.9-8.9,13.6-10.8,23.2c-1.9,9.6-2.8,21.1-2.8,34.4v183.2c0,12.8,0.9,24.1,2.8,34
			c1.9,9.9,5.5,17.6,10.8,23.2C3525.9,2343.7,3533.6,2346.5,3543.8,2346.5z"/>
		<linearGradient id="SVGID_11_" gradientUnits="userSpaceOnUse" x1="2430.4404" y1="1761.8918" x2="2421.6274" y2="2560.9414">
			<stop  offset="0" style="stop-color:#5C36BC"/>
			<stop  offset="1" style="stop-color:#422788"/>
		</linearGradient>
		<path class="st14" d="M3918.2,2576.9c-33.1,0-62.3-3.3-87.6-10c-25.3-6.7-44.9-16.9-58.8-30.8c-13.9-13.9-20.8-31.2-20.8-52
			c0-16,3.6-30.1,10.8-42.4c7.2-12.3,17.2-22.9,30-32c12.8-9.1,27.2-16.5,43.2-22.4l48,8c-6.4,5.3-12.3,10.7-17.6,16
			c-5.3,5.3-9.7,10.9-13.2,16.8c-3.5,5.9-5.2,12.8-5.2,20.8c0,12.3,6.5,21.3,19.6,27.2c13.1,5.9,35.1,8.8,66,8.8
			c26.7,0,47.2-2.5,61.6-7.6c14.4-5.1,21.6-14.5,21.6-28.4c0-7.5-1.9-13.6-5.6-18.4c-3.7-4.8-10-8.7-18.8-11.6s-20.9-5.2-36.4-6.8
			l-112-13.6c-23.5-3.2-42-11.6-55.6-25.2c-13.6-13.6-20.4-30.3-20.4-50c0-18.7,5.7-35.7,17.2-51.2c11.5-15.5,26.5-30.9,45.2-46.4
			l41.6,24.8c-5.3,5.9-10,11.9-14,18c-4,6.1-6,12.7-6,19.6c0,6.4,3.2,11.5,9.6,15.2c6.4,3.7,17.3,6.4,32.8,8l103.2,12.8
			c38.4,4.8,66.8,17.6,85.2,38.4c18.4,20.8,27.6,48,27.6,81.6c0,28.8-6.4,53.1-19.2,72.8c-12.8,19.7-33.2,34.7-61.2,44.8
			C4001,2571.8,3964,2576.9,3918.2,2576.9z M3925.4,2272.1c-35.2,0-64.7-6.5-88.4-19.6c-23.7-13.1-41.6-31.6-53.6-55.6
			s-18-52.5-18-85.6c0-34.7,6.1-64,18.4-88c12.3-24,30.3-42.3,54-54.8c23.7-12.5,52.9-18.8,87.6-18.8c33.1,0,60.9,6.7,83.6,20
			c22.7,13.3,39.9,32,51.6,56c11.7,24,17.6,52.8,17.6,86.4c0,33.1-5.6,61.5-16.8,85.2c-11.2,23.7-28,42.1-50.4,55.2
			C3988.6,2265.6,3960,2272.1,3925.4,2272.1z M3925.4,2197.7c8,0,14.5-1.6,19.6-4.8c5.1-3.2,8.9-8.3,11.6-15.2
			c2.7-6.9,4.5-15.9,5.6-26.8c1.1-10.9,1.6-24.1,1.6-39.6c0-15.5-0.5-28.7-1.6-39.6c-1.1-10.9-2.9-20-5.6-27.2
			c-2.7-7.2-6.5-12.4-11.6-15.6c-5.1-3.2-11.6-4.8-19.6-4.8s-14.7,1.6-20,4.8c-5.3,3.2-9.5,8.3-12.4,15.2c-2.9,6.9-4.9,16-6,27.2
			c-1.1,11.2-1.6,24.5-1.6,40c0,14.9,0.5,27.9,1.6,38.8c1.1,10.9,2.9,19.9,5.6,26.8c2.7,6.9,6.7,12.1,12,15.6
			C3909.9,2196,3916.8,2197.7,3925.4,2197.7z M4052.6,2031.3l-25.6-34.4c7.5-13.9,17.5-25.6,30-35.2c12.5-9.6,28.7-18.9,48.4-28
			l28.8,60.8c-5.3,1.6-13.5,4.7-24.4,9.2c-10.9,4.5-21.9,9.3-32.8,14.4C4066,2023.2,4057.9,2027.6,4052.6,2031.3z"/>
	</g>
	<g class="st3">
		<g>
			<path class="st15" d="M723.8,2420.1v-648h164c28.3,0,54.4,2.4,78.4,7.2c24,4.8,45.2,13.3,63.6,25.6
				c18.4,12.3,32.5,29.2,42.4,50.8c9.9,21.6,14.8,49.7,14.8,84.4c0,26.1-3.7,48.4-11.2,66.8c-7.5,18.4-18.1,32.9-32,43.6
				c-13.9,10.7-30.9,17.9-51.2,21.6c25.1,3.7,46.1,12.3,63.2,25.6c17.1,13.3,29.9,30.9,38.4,52.8c8.5,21.9,12.8,48.3,12.8,79.2
				c0,32.5-4.1,60.8-12.4,84.8c-8.3,24-20.4,43.7-36.4,59.2c-16,15.5-35.7,27.1-59.2,34.8c-23.5,7.7-50.7,11.6-81.6,11.6H723.8z
				 M855.8,2033.7h32.8c22.9,0,40.3-3.3,52-10c11.7-6.7,19.9-16.8,24.4-30.4c4.5-13.6,6.8-30.3,6.8-50c0-19.7-3.3-35.6-10-47.6
				c-6.7-12-16.8-20.7-30.4-26c-13.6-5.3-30.8-8-51.6-8h-24V2033.7z M855.8,2327.3h36.8c33.1,0,55.9-8.3,68.4-24.8
				c12.5-16.5,18.8-41.3,18.8-74.4c0-25.6-2.9-46-8.8-61.2c-5.9-15.2-15.3-26.4-28.4-33.6c-13.1-7.2-30.5-10.8-52.4-10.8h-34.4
				V2327.3z"/>
			<path class="st15" d="M1322.2,2428.1c-33.1,0-61.3-6-84.8-18c-23.5-12-41.2-29.5-53.2-52.4c-12-22.9-18-51.5-18-85.6v-166.4
				c0-34.1,6-62.7,18-85.6c12-22.9,29.7-40.4,53.2-52.4c23.5-12,51.7-18,84.8-18c33.1,0,61.3,6,84.8,18c23.5,12,41.3,29.5,53.6,52.4
				c12.3,22.9,18.4,51.5,18.4,85.6v166.4c0,34.1-6.1,62.7-18.4,85.6c-12.3,22.9-30.1,40.4-53.6,52.4
				C1383.5,2422.1,1355.3,2428.1,1322.2,2428.1z M1323,2346.5c10.1,0,17.9-2.8,23.2-8.4c5.3-5.6,8.8-13.3,10.4-23.2
				c1.6-9.9,2.4-21.2,2.4-34v-183.2c0-13.3-0.8-24.8-2.4-34.4c-1.6-9.6-5.1-17.3-10.4-23.2c-5.3-5.9-13.1-8.8-23.2-8.8
				c-10.1,0-17.9,2.9-23.2,8.8c-5.3,5.9-8.9,13.6-10.8,23.2c-1.9,9.6-2.8,21.1-2.8,34.4v183.2c0,12.8,0.9,24.1,2.8,34
				c1.9,9.9,5.5,17.6,10.8,23.2C1305.1,2343.7,1312.9,2346.5,1323,2346.5z"/>
			<path class="st15" d="M1558.2,2420.1v-648H1679v648H1558.2z"/>
			<path class="st15" d="M1903.8,2424.9c-32.5,0-57.7-4.9-75.6-14.8c-17.9-9.9-30.3-24.1-37.2-42.8c-6.9-18.7-10.4-41.3-10.4-68
				v-262.4H1735v-79.2h45.6v-140h121.6v140h68v79.2h-68v251.2c0,14.4,3.7,24.7,11.2,30.8c7.5,6.1,17.6,9.2,30.4,9.2
				c6.4,0,12.5-0.4,18.4-1.2c5.9-0.8,11.2-1.5,16-2v94.4c-8,1.1-18.8,2.3-32.4,3.6C1932.2,2424.2,1918.2,2424.9,1903.8,2424.9z"/>
			<path class="st15" d="M2036.6,1996.1l-11.2-39.2c19.7-0.5,32.7-7.6,38.8-21.2c6.1-13.6,9.2-31.6,9.2-54h-53.6v-109.6h110.4
				c0,15.5,0,30.4,0,44.8c0,14.4-0.3,28.3-0.8,41.6c-1.6,44.8-8.7,78.8-21.2,102C2095.7,1983.7,2071.8,1995.6,2036.6,1996.1z"/>
			<path class="st15" d="M2330.2,2428.1c-40,0-72.9-9.7-98.8-29.2c-25.9-19.5-46-49.5-60.4-90l84.8-35.2c8,22.4,17.6,39.9,28.8,52.4
				c11.2,12.5,24.3,18.8,39.2,18.8c11.2,0,19.6-2.5,25.2-7.6c5.6-5.1,8.4-12.1,8.4-21.2c0-12.8-4.3-24.3-12.8-34.4
				c-8.5-10.1-23.7-24.3-45.6-42.4l-43.2-36.8c-22.4-19.2-40.4-38.3-54-57.2c-13.6-18.9-20.4-42.5-20.4-70.8
				c0-25.1,6.3-46.9,18.8-65.6c12.5-18.7,29.3-33.2,50.4-43.6c21.1-10.4,43.9-15.6,68.4-15.6c38.4,0,69.9,10.8,94.4,32.4
				c24.5,21.6,41.3,50.8,50.4,87.6l-80.8,35.2c-2.7-11.7-6.8-22.8-12.4-33.2c-5.6-10.4-12.4-19.1-20.4-26c-8-6.9-17.3-10.4-28-10.4
				c-9.6,0-17.3,2.9-23.2,8.8c-5.9,5.9-8.8,13.3-8.8,22.4c0,9.6,4.9,19.7,14.8,30.4c9.9,10.7,23.6,23.5,41.2,38.4l43.2,38.4
				c12.8,11.2,25.3,23.1,37.6,35.6c12.3,12.5,22.4,26.4,30.4,41.6s12,32.7,12,52.4c0,26.7-6.4,49.3-19.2,68
				c-12.8,18.7-29.7,32.8-50.8,42.4C2378.3,2423.3,2355.3,2428.1,2330.2,2428.1z"/>
			<path class="st15" d="M2733.4,2420.1v-648h164c28.3,0,54.4,2.4,78.4,7.2s45.2,13.3,63.6,25.6c18.4,12.3,32.5,29.2,42.4,50.8
				c9.9,21.6,14.8,49.7,14.8,84.4c0,26.1-3.7,48.4-11.2,66.8c-7.5,18.4-18.1,32.9-32,43.6c-13.9,10.7-30.9,17.9-51.2,21.6
				c25.1,3.7,46.1,12.3,63.2,25.6c17.1,13.3,29.9,30.9,38.4,52.8c8.5,21.9,12.8,48.3,12.8,79.2c0,32.5-4.1,60.8-12.4,84.8
				c-8.3,24-20.4,43.7-36.4,59.2c-16,15.5-35.7,27.1-59.2,34.8c-23.5,7.7-50.7,11.6-81.6,11.6H2733.4z M2865.4,2033.7h32.8
				c22.9,0,40.3-3.3,52-10c11.7-6.7,19.9-16.8,24.4-30.4c4.5-13.6,6.8-30.3,6.8-50c0-19.7-3.3-35.6-10-47.6
				c-6.7-12-16.8-20.7-30.4-26c-13.6-5.3-30.8-8-51.6-8h-24V2033.7z M2865.4,2327.3h36.8c33.1,0,55.9-8.3,68.4-24.8
				c12.5-16.5,18.8-41.3,18.8-74.4c0-25.6-2.9-46-8.8-61.2c-5.9-15.2-15.3-26.4-28.4-33.6c-13.1-7.2-30.5-10.8-52.4-10.8h-34.4
				V2327.3z"/>
			<path class="st15" d="M3191,2420.1v-648h120.8v648H3191z"/>
			<path class="st15" d="M3543,2428.1c-33.1,0-61.3-6-84.8-18c-23.5-12-41.2-29.5-53.2-52.4c-12-22.9-18-51.5-18-85.6v-166.4
				c0-34.1,6-62.7,18-85.6c12-22.9,29.7-40.4,53.2-52.4c23.5-12,51.7-18,84.8-18c33.1,0,61.3,6,84.8,18c23.5,12,41.3,29.5,53.6,52.4
				c12.3,22.9,18.4,51.5,18.4,85.6v166.4c0,34.1-6.1,62.7-18.4,85.6c-12.3,22.9-30.1,40.4-53.6,52.4
				C3604.3,2422.1,3576,2428.1,3543,2428.1z M3543.8,2346.5c10.1,0,17.9-2.8,23.2-8.4c5.3-5.6,8.8-13.3,10.4-23.2
				c1.6-9.9,2.4-21.2,2.4-34v-183.2c0-13.3-0.8-24.8-2.4-34.4c-1.6-9.6-5.1-17.3-10.4-23.2c-5.3-5.9-13.1-8.8-23.2-8.8
				c-10.1,0-17.9,2.9-23.2,8.8c-5.3,5.9-8.9,13.6-10.8,23.2c-1.9,9.6-2.8,21.1-2.8,34.4v183.2c0,12.8,0.9,24.1,2.8,34
				c1.9,9.9,5.5,17.6,10.8,23.2C3525.9,2343.7,3533.6,2346.5,3543.8,2346.5z"/>
			<path class="st15" d="M3918.2,2576.9c-33.1,0-62.3-3.3-87.6-10c-25.3-6.7-44.9-16.9-58.8-30.8c-13.9-13.9-20.8-31.2-20.8-52
				c0-16,3.6-30.1,10.8-42.4c7.2-12.3,17.2-22.9,30-32c12.8-9.1,27.2-16.5,43.2-22.4l48,8c-6.4,5.3-12.3,10.7-17.6,16
				c-5.3,5.3-9.7,10.9-13.2,16.8c-3.5,5.9-5.2,12.8-5.2,20.8c0,12.3,6.5,21.3,19.6,27.2c13.1,5.9,35.1,8.8,66,8.8
				c26.7,0,47.2-2.5,61.6-7.6c14.4-5.1,21.6-14.5,21.6-28.4c0-7.5-1.9-13.6-5.6-18.4c-3.7-4.8-10-8.7-18.8-11.6s-20.9-5.2-36.4-6.8
				l-112-13.6c-23.5-3.2-42-11.6-55.6-25.2c-13.6-13.6-20.4-30.3-20.4-50c0-18.7,5.7-35.7,17.2-51.2c11.5-15.5,26.5-30.9,45.2-46.4
				l41.6,24.8c-5.3,5.9-10,11.9-14,18c-4,6.1-6,12.7-6,19.6c0,6.4,3.2,11.5,9.6,15.2c6.4,3.7,17.3,6.4,32.8,8l103.2,12.8
				c38.4,4.8,66.8,17.6,85.2,38.4c18.4,20.8,27.6,48,27.6,81.6c0,28.8-6.4,53.1-19.2,72.8c-12.8,19.7-33.2,34.7-61.2,44.8
				C4001,2571.8,3964,2576.9,3918.2,2576.9z M3925.4,2272.1c-35.2,0-64.7-6.5-88.4-19.6c-23.7-13.1-41.6-31.6-53.6-55.6
				s-18-52.5-18-85.6c0-34.7,6.1-64,18.4-88c12.3-24,30.3-42.3,54-54.8c23.7-12.5,52.9-18.8,87.6-18.8c33.1,0,60.9,6.7,83.6,20
				c22.7,13.3,39.9,32,51.6,56c11.7,24,17.6,52.8,17.6,86.4c0,33.1-5.6,61.5-16.8,85.2c-11.2,23.7-28,42.1-50.4,55.2
				C3988.6,2265.6,3960,2272.1,3925.4,2272.1z M3925.4,2197.7c8,0,14.5-1.6,19.6-4.8c5.1-3.2,8.9-8.3,11.6-15.2
				c2.7-6.9,4.5-15.9,5.6-26.8c1.1-10.9,1.6-24.1,1.6-39.6c0-15.5-0.5-28.7-1.6-39.6c-1.1-10.9-2.9-20-5.6-27.2
				c-2.7-7.2-6.5-12.4-11.6-15.6c-5.1-3.2-11.6-4.8-19.6-4.8s-14.7,1.6-20,4.8c-5.3,3.2-9.5,8.3-12.4,15.2c-2.9,6.9-4.9,16-6,27.2
				c-1.1,11.2-1.6,24.5-1.6,40c0,14.9,0.5,27.9,1.6,38.8c1.1,10.9,2.9,19.9,5.6,26.8c2.7,6.9,6.7,12.1,12,15.6
				C3909.9,2196,3916.8,2197.7,3925.4,2197.7z M4052.6,2031.3l-25.6-34.4c7.5-13.9,17.5-25.6,30-35.2c12.5-9.6,28.7-18.9,48.4-28
				l28.8,60.8c-5.3,1.6-13.5,4.7-24.4,9.2c-10.9,4.5-21.9,9.3-32.8,14.4C4066,2023.2,4057.9,2027.6,4052.6,2031.3z"/>
		</g>
	</g>
</g>
<g>
	<g>
		<g>
			<path d="M950.2,823.6v-648h164c28.3,0,54.4,2.4,78.4,7.2c24,4.8,45.2,13.3,63.6,25.6c18.4,12.3,32.5,29.2,42.4,50.8
				c9.9,21.6,14.8,49.7,14.8,84.4c0,26.1-3.7,48.4-11.2,66.8c-7.5,18.4-18.1,32.9-32,43.6c-13.9,10.7-30.9,17.9-51.2,21.6
				c25.1,3.7,46.1,12.3,63.2,25.6c17.1,13.3,29.9,30.9,38.4,52.8c8.5,21.9,12.8,48.3,12.8,79.2c0,32.5-4.1,60.8-12.4,84.8
				c-8.3,24-20.4,43.7-36.4,59.2c-16,15.5-35.7,27.1-59.2,34.8c-23.5,7.7-50.7,11.6-81.6,11.6H950.2z M1082.2,437.2h32.8
				c22.9,0,40.3-3.3,52-10c11.7-6.7,19.9-16.8,24.4-30.4c4.5-13.6,6.8-30.3,6.8-50c0-19.7-3.3-35.6-10-47.6
				c-6.7-12-16.8-20.7-30.4-26c-13.6-5.3-30.8-8-51.6-8h-24V437.2z M1082.2,730.8h36.8c33.1,0,55.9-8.3,68.4-24.8
				c12.5-16.5,18.8-41.3,18.8-74.4c0-25.6-2.9-46-8.8-61.2c-5.9-15.2-15.3-26.4-28.4-33.6c-13.1-7.2-30.5-10.8-52.4-10.8h-34.4
				V730.8z"/>
			<path d="M1548.6,831.6c-33.1,0-61.3-6-84.8-18c-23.5-12-41.2-29.5-53.2-52.4c-12-22.9-18-51.5-18-85.6V509.2
				c0-34.1,6-62.7,18-85.6c12-22.9,29.7-40.4,53.2-52.4c23.5-12,51.7-18,84.8-18c33.1,0,61.3,6,84.8,18c23.5,12,41.3,29.5,53.6,52.4
				c12.3,22.9,18.4,51.5,18.4,85.6v166.4c0,34.1-6.1,62.7-18.4,85.6c-12.3,22.9-30.1,40.4-53.6,52.4
				C1610,825.6,1581.7,831.6,1548.6,831.6z M1549.4,750c10.1,0,17.9-2.8,23.2-8.4c5.3-5.6,8.8-13.3,10.4-23.2
				c1.6-9.9,2.4-21.2,2.4-34V501.2c0-13.3-0.8-24.8-2.4-34.4c-1.6-9.6-5.1-17.3-10.4-23.2c-5.3-5.9-13.1-8.8-23.2-8.8
				c-10.1,0-17.9,2.9-23.2,8.8c-5.3,5.9-8.9,13.6-10.8,23.2c-1.9,9.6-2.8,21.1-2.8,34.4v183.2c0,12.8,0.9,24.1,2.8,34
				c1.9,9.9,5.5,17.6,10.8,23.2C1531.6,747.2,1539.3,750,1549.4,750z"/>
			<path d="M1784.6,823.6v-648h120.8v648H1784.6z"/>
			<path d="M2130.2,828.4c-32.5,0-57.7-4.9-75.6-14.8c-17.9-9.9-30.3-24.1-37.2-42.8c-6.9-18.7-10.4-41.3-10.4-68V440.4h-45.6v-79.2
				h45.6v-140h121.6v140h68v79.2h-68v251.2c0,14.4,3.7,24.7,11.2,30.8c7.5,6.1,17.6,9.2,30.4,9.2c6.4,0,12.5-0.4,18.4-1.2
				c5.9-0.8,11.2-1.5,16-2v94.4c-8,1.1-18.8,2.3-32.4,3.6C2158.6,827.7,2144.6,828.4,2130.2,828.4z"/>
			<path d="M2263,399.6l-11.2-39.2c19.7-0.5,32.7-7.6,38.8-21.2c6.1-13.6,9.2-31.6,9.2-54h-53.6V175.6h110.4c0,15.5,0,30.4,0,44.8
				c0,14.4-0.3,28.3-0.8,41.6c-1.6,44.8-8.7,78.8-21.2,102C2322.1,387.2,2298.2,399,2263,399.6z"/>
			<path d="M2556.6,831.6c-40,0-72.9-9.7-98.8-29.2c-25.9-19.5-46-49.5-60.4-90l84.8-35.2c8,22.4,17.6,39.9,28.8,52.4
				c11.2,12.5,24.3,18.8,39.2,18.8c11.2,0,19.6-2.5,25.2-7.6c5.6-5.1,8.4-12.1,8.4-21.2c0-12.8-4.3-24.3-12.8-34.4
				c-8.5-10.1-23.7-24.3-45.6-42.4l-43.2-36.8c-22.4-19.2-40.4-38.3-54-57.2c-13.6-18.9-20.4-42.5-20.4-70.8
				c0-25.1,6.3-46.9,18.8-65.6c12.5-18.7,29.3-33.2,50.4-43.6c21.1-10.4,43.9-15.6,68.4-15.6c38.4,0,69.9,10.8,94.4,32.4
				c24.5,21.6,41.3,50.8,50.4,87.6l-80.8,35.2c-2.7-11.7-6.8-22.8-12.4-33.2s-12.4-19.1-20.4-26c-8-6.9-17.3-10.4-28-10.4
				c-9.6,0-17.3,2.9-23.2,8.8c-5.9,5.9-8.8,13.3-8.8,22.4c0,9.6,4.9,19.7,14.8,30.4c9.9,10.7,23.6,23.5,41.2,38.4l43.2,38.4
				c12.8,11.2,25.3,23.1,37.6,35.6c12.3,12.5,22.4,26.4,30.4,41.6s12,32.7,12,52.4c0,26.7-6.4,49.3-19.2,68
				c-12.8,18.7-29.7,32.8-50.8,42.4C2604.7,826.8,2581.7,831.6,2556.6,831.6z"/>
			<path d="M2959.8,823.6v-648h164c28.3,0,54.4,2.4,78.4,7.2c24,4.8,45.2,13.3,63.6,25.6c18.4,12.3,32.5,29.2,42.4,50.8
				c9.9,21.6,14.8,49.7,14.8,84.4c0,26.1-3.7,48.4-11.2,66.8c-7.5,18.4-18.1,32.9-32,43.6c-13.9,10.7-30.9,17.9-51.2,21.6
				c25.1,3.7,46.1,12.3,63.2,25.6c17.1,13.3,29.9,30.9,38.4,52.8c8.5,21.9,12.8,48.3,12.8,79.2c0,32.5-4.1,60.8-12.4,84.8
				c-8.3,24-20.4,43.7-36.4,59.2c-16,15.5-35.7,27.1-59.2,34.8c-23.5,7.7-50.7,11.6-81.6,11.6H2959.8z M3091.8,437.2h32.8
				c22.9,0,40.3-3.3,52-10c11.7-6.7,19.9-16.8,24.4-30.4c4.5-13.6,6.8-30.3,6.8-50c0-19.7-3.3-35.6-10-47.6
				c-6.7-12-16.8-20.7-30.4-26c-13.6-5.3-30.8-8-51.6-8h-24V437.2z M3091.8,730.8h36.8c33.1,0,55.9-8.3,68.4-24.8
				c12.5-16.5,18.8-41.3,18.8-74.4c0-25.6-2.9-46-8.8-61.2c-5.9-15.2-15.3-26.4-28.4-33.6c-13.1-7.2-30.5-10.8-52.4-10.8h-34.4
				V730.8z"/>
			<path d="M3417.4,823.6v-648h120.8v648H3417.4z"/>
			<path d="M3769.4,831.6c-33.1,0-61.3-6-84.8-18c-23.5-12-41.2-29.5-53.2-52.4c-12-22.9-18-51.5-18-85.6V509.2
				c0-34.1,6-62.7,18-85.6c12-22.9,29.7-40.4,53.2-52.4c23.5-12,51.7-18,84.8-18c33.1,0,61.3,6,84.8,18c23.5,12,41.3,29.5,53.6,52.4
				c12.3,22.9,18.4,51.5,18.4,85.6v166.4c0,34.1-6.1,62.7-18.4,85.6c-12.3,22.9-30.1,40.4-53.6,52.4
				C3830.7,825.6,3802.5,831.6,3769.4,831.6z M3770.2,750c10.1,0,17.9-2.8,23.2-8.4c5.3-5.6,8.8-13.3,10.4-23.2
				c1.6-9.9,2.4-21.2,2.4-34V501.2c0-13.3-0.8-24.8-2.4-34.4c-1.6-9.6-5.1-17.3-10.4-23.2c-5.3-5.9-13.1-8.8-23.2-8.8
				c-10.1,0-17.9,2.9-23.2,8.8c-5.3,5.9-8.9,13.6-10.8,23.2c-1.9,9.6-2.8,21.1-2.8,34.4v183.2c0,12.8,0.9,24.1,2.8,34
				c1.9,9.9,5.5,17.6,10.8,23.2C3752.3,747.2,3760.1,750,3770.2,750z"/>
			<path d="M4144.6,980.4c-33.1,0-62.3-3.3-87.6-10c-25.3-6.7-44.9-16.9-58.8-30.8c-13.9-13.9-20.8-31.2-20.8-52
				c0-16,3.6-30.1,10.8-42.4c7.2-12.3,17.2-22.9,30-32c12.8-9.1,27.2-16.5,43.2-22.4l48,8c-6.4,5.3-12.3,10.7-17.6,16
				c-5.3,5.3-9.7,10.9-13.2,16.8c-3.5,5.9-5.2,12.8-5.2,20.8c0,12.3,6.5,21.3,19.6,27.2c13.1,5.9,35.1,8.8,66,8.8
				c26.7,0,47.2-2.5,61.6-7.6c14.4-5.1,21.6-14.5,21.6-28.4c0-7.5-1.9-13.6-5.6-18.4c-3.7-4.8-10-8.7-18.8-11.6
				c-8.8-2.9-20.9-5.2-36.4-6.8l-112-13.6c-23.5-3.2-42-11.6-55.6-25.2c-13.6-13.6-20.4-30.3-20.4-50c0-18.7,5.7-35.7,17.2-51.2
				c11.5-15.5,26.5-30.9,45.2-46.4l41.6,24.8c-5.3,5.9-10,11.9-14,18c-4,6.1-6,12.7-6,19.6c0,6.4,3.2,11.5,9.6,15.2
				c6.4,3.7,17.3,6.4,32.8,8l103.2,12.8c38.4,4.8,66.8,17.6,85.2,38.4c18.4,20.8,27.6,48,27.6,81.6c0,28.8-6.4,53.1-19.2,72.8
				c-12.8,19.7-33.2,34.7-61.2,44.8C4227.4,975.3,4190.5,980.4,4144.6,980.4z M4151.8,675.6c-35.2,0-64.7-6.5-88.4-19.6
				c-23.7-13.1-41.6-31.6-53.6-55.6s-18-52.5-18-85.6c0-34.7,6.1-64,18.4-88c12.3-24,30.3-42.3,54-54.8
				c23.7-12.5,52.9-18.8,87.6-18.8c33.1,0,60.9,6.7,83.6,20c22.7,13.3,39.9,32,51.6,56c11.7,24,17.6,52.8,17.6,86.4
				c0,33.1-5.6,61.5-16.8,85.2c-11.2,23.7-28,42.1-50.4,55.2C4215,669,4186.5,675.6,4151.8,675.6z M4151.8,601.2
				c8,0,14.5-1.6,19.6-4.8c5.1-3.2,8.9-8.3,11.6-15.2c2.7-6.9,4.5-15.9,5.6-26.8c1.1-10.9,1.6-24.1,1.6-39.6
				c0-15.5-0.5-28.7-1.6-39.6c-1.1-10.9-2.9-20-5.6-27.2c-2.7-7.2-6.5-12.4-11.6-15.6c-5.1-3.2-11.6-4.8-19.6-4.8s-14.7,1.6-20,4.8
				c-5.3,3.2-9.5,8.3-12.4,15.2c-2.9,6.9-4.9,16-6,27.2c-1.1,11.2-1.6,24.5-1.6,40c0,14.9,0.5,27.9,1.6,38.8
				c1.1,10.9,2.9,19.9,5.6,26.8c2.7,6.9,6.7,12.1,12,15.6C4136.3,599.4,4143.3,601.2,4151.8,601.2z M4279,434.8l-25.6-34.4
				c7.5-13.9,17.5-25.6,30-35.2c12.5-9.6,28.7-18.9,48.4-28l28.8,60.8c-5.3,1.6-13.5,4.7-24.4,9.2c-10.9,4.5-21.9,9.3-32.8,14.4
				C4292.5,426.6,4284.3,431,4279,434.8z"/>
		</g>
	</g>
	<g>
		<linearGradient id="SVGID_12_" gradientUnits="userSpaceOnUse" x1="2655.4221" y1="175.5527" x2="2655.4221" y2="980.3525">
			<stop  offset="2.177339e-07" style="stop-color:#5C36BC"/>
			<stop  offset="1" style="stop-color:#422787"/>
		</linearGradient>
		<path class="st16" d="M950.2,823.6v-648h164c28.3,0,54.4,2.4,78.4,7.2c24,4.8,45.2,13.3,63.6,25.6c18.4,12.3,32.5,29.2,42.4,50.8
			c9.9,21.6,14.8,49.7,14.8,84.4c0,26.1-3.7,48.4-11.2,66.8c-7.5,18.4-18.1,32.9-32,43.6c-13.9,10.7-30.9,17.9-51.2,21.6
			c25.1,3.7,46.1,12.3,63.2,25.6c17.1,13.3,29.9,30.9,38.4,52.8c8.5,21.9,12.8,48.3,12.8,79.2c0,32.5-4.1,60.8-12.4,84.8
			c-8.3,24-20.4,43.7-36.4,59.2c-16,15.5-35.7,27.1-59.2,34.8c-23.5,7.7-50.7,11.6-81.6,11.6H950.2z M1082.2,437.2h32.8
			c22.9,0,40.3-3.3,52-10c11.7-6.7,19.9-16.8,24.4-30.4c4.5-13.6,6.8-30.3,6.8-50c0-19.7-3.3-35.6-10-47.6
			c-6.7-12-16.8-20.7-30.4-26c-13.6-5.3-30.8-8-51.6-8h-24V437.2z M1082.2,730.8h36.8c33.1,0,55.9-8.3,68.4-24.8
			c12.5-16.5,18.8-41.3,18.8-74.4c0-25.6-2.9-46-8.8-61.2c-5.9-15.2-15.3-26.4-28.4-33.6c-13.1-7.2-30.5-10.8-52.4-10.8h-34.4V730.8
			z"/>
		<linearGradient id="SVGID_13_" gradientUnits="userSpaceOnUse" x1="2655.4221" y1="175.5527" x2="2655.4221" y2="980.3525">
			<stop  offset="2.177339e-07" style="stop-color:#5C36BC"/>
			<stop  offset="1" style="stop-color:#422787"/>
		</linearGradient>
		<path class="st17" d="M1548.6,831.6c-33.1,0-61.3-6-84.8-18c-23.5-12-41.2-29.5-53.2-52.4c-12-22.9-18-51.5-18-85.6V509.2
			c0-34.1,6-62.7,18-85.6c12-22.9,29.7-40.4,53.2-52.4c23.5-12,51.7-18,84.8-18c33.1,0,61.3,6,84.8,18c23.5,12,41.3,29.5,53.6,52.4
			c12.3,22.9,18.4,51.5,18.4,85.6v166.4c0,34.1-6.1,62.7-18.4,85.6c-12.3,22.9-30.1,40.4-53.6,52.4
			C1610,825.6,1581.7,831.6,1548.6,831.6z M1549.4,750c10.1,0,17.9-2.8,23.2-8.4c5.3-5.6,8.8-13.3,10.4-23.2
			c1.6-9.9,2.4-21.2,2.4-34V501.2c0-13.3-0.8-24.8-2.4-34.4c-1.6-9.6-5.1-17.3-10.4-23.2c-5.3-5.9-13.1-8.8-23.2-8.8
			c-10.1,0-17.9,2.9-23.2,8.8c-5.3,5.9-8.9,13.6-10.8,23.2c-1.9,9.6-2.8,21.1-2.8,34.4v183.2c0,12.8,0.9,24.1,2.8,34
			c1.9,9.9,5.5,17.6,10.8,23.2C1531.6,747.2,1539.3,750,1549.4,750z"/>
		<linearGradient id="SVGID_14_" gradientUnits="userSpaceOnUse" x1="2655.4221" y1="175.5527" x2="2655.4221" y2="980.3525">
			<stop  offset="2.177339e-07" style="stop-color:#5C36BC"/>
			<stop  offset="1" style="stop-color:#422787"/>
		</linearGradient>
		<path class="st18" d="M1784.6,823.6v-648h120.8v648H1784.6z"/>
		<linearGradient id="SVGID_15_" gradientUnits="userSpaceOnUse" x1="2655.4221" y1="175.5527" x2="2655.4221" y2="980.3525">
			<stop  offset="2.177339e-07" style="stop-color:#5C36BC"/>
			<stop  offset="1" style="stop-color:#422787"/>
		</linearGradient>
		<path class="st19" d="M2130.2,828.4c-32.5,0-57.7-4.9-75.6-14.8c-17.9-9.9-30.3-24.1-37.2-42.8c-6.9-18.7-10.4-41.3-10.4-68V440.4
			h-45.6v-79.2h45.6v-140h121.6v140h68v79.2h-68v251.2c0,14.4,3.7,24.7,11.2,30.8c7.5,6.1,17.6,9.2,30.4,9.2
			c6.4,0,12.5-0.4,18.4-1.2c5.9-0.8,11.2-1.5,16-2v94.4c-8,1.1-18.8,2.3-32.4,3.6C2158.6,827.7,2144.6,828.4,2130.2,828.4z"/>
		<linearGradient id="SVGID_16_" gradientUnits="userSpaceOnUse" x1="2655.4221" y1="175.5527" x2="2655.4221" y2="980.3525">
			<stop  offset="2.177339e-07" style="stop-color:#5C36BC"/>
			<stop  offset="1" style="stop-color:#422787"/>
		</linearGradient>
		<path class="st20" d="M2263,399.6l-11.2-39.2c19.7-0.5,32.7-7.6,38.8-21.2c6.1-13.6,9.2-31.6,9.2-54h-53.6V175.6h110.4
			c0,15.5,0,30.4,0,44.8c0,14.4-0.3,28.3-0.8,41.6c-1.6,44.8-8.7,78.8-21.2,102C2322.1,387.2,2298.2,399,2263,399.6z"/>
		<linearGradient id="SVGID_17_" gradientUnits="userSpaceOnUse" x1="2655.4221" y1="175.5527" x2="2655.4221" y2="980.3525">
			<stop  offset="2.177339e-07" style="stop-color:#5C36BC"/>
			<stop  offset="1" style="stop-color:#422787"/>
		</linearGradient>
		<path class="st21" d="M2556.6,831.6c-40,0-72.9-9.7-98.8-29.2c-25.9-19.5-46-49.5-60.4-90l84.8-35.2c8,22.4,17.6,39.9,28.8,52.4
			c11.2,12.5,24.3,18.8,39.2,18.8c11.2,0,19.6-2.5,25.2-7.6c5.6-5.1,8.4-12.1,8.4-21.2c0-12.8-4.3-24.3-12.8-34.4
			c-8.5-10.1-23.7-24.3-45.6-42.4l-43.2-36.8c-22.4-19.2-40.4-38.3-54-57.2c-13.6-18.9-20.4-42.5-20.4-70.8
			c0-25.1,6.3-46.9,18.8-65.6c12.5-18.7,29.3-33.2,50.4-43.6c21.1-10.4,43.9-15.6,68.4-15.6c38.4,0,69.9,10.8,94.4,32.4
			c24.5,21.6,41.3,50.8,50.4,87.6l-80.8,35.2c-2.7-11.7-6.8-22.8-12.4-33.2s-12.4-19.1-20.4-26c-8-6.9-17.3-10.4-28-10.4
			c-9.6,0-17.3,2.9-23.2,8.8c-5.9,5.9-8.8,13.3-8.8,22.4c0,9.6,4.9,19.7,14.8,30.4c9.9,10.7,23.6,23.5,41.2,38.4l43.2,38.4
			c12.8,11.2,25.3,23.1,37.6,35.6c12.3,12.5,22.4,26.4,30.4,41.6s12,32.7,12,52.4c0,26.7-6.4,49.3-19.2,68
			c-12.8,18.7-29.7,32.8-50.8,42.4C2604.7,826.8,2581.7,831.6,2556.6,831.6z"/>
		<linearGradient id="SVGID_18_" gradientUnits="userSpaceOnUse" x1="2655.4221" y1="175.5527" x2="2655.4221" y2="980.3525">
			<stop  offset="2.177339e-07" style="stop-color:#5C36BC"/>
			<stop  offset="1" style="stop-color:#422787"/>
		</linearGradient>
		<path class="st22" d="M2959.8,823.6v-648h164c28.3,0,54.4,2.4,78.4,7.2c24,4.8,45.2,13.3,63.6,25.6c18.4,12.3,32.5,29.2,42.4,50.8
			c9.9,21.6,14.8,49.7,14.8,84.4c0,26.1-3.7,48.4-11.2,66.8c-7.5,18.4-18.1,32.9-32,43.6c-13.9,10.7-30.9,17.9-51.2,21.6
			c25.1,3.7,46.1,12.3,63.2,25.6c17.1,13.3,29.9,30.9,38.4,52.8c8.5,21.9,12.8,48.3,12.8,79.2c0,32.5-4.1,60.8-12.4,84.8
			c-8.3,24-20.4,43.7-36.4,59.2c-16,15.5-35.7,27.1-59.2,34.8c-23.5,7.7-50.7,11.6-81.6,11.6H2959.8z M3091.8,437.2h32.8
			c22.9,0,40.3-3.3,52-10c11.7-6.7,19.9-16.8,24.4-30.4c4.5-13.6,6.8-30.3,6.8-50c0-19.7-3.3-35.6-10-47.6
			c-6.7-12-16.8-20.7-30.4-26c-13.6-5.3-30.8-8-51.6-8h-24V437.2z M3091.8,730.8h36.8c33.1,0,55.9-8.3,68.4-24.8
			c12.5-16.5,18.8-41.3,18.8-74.4c0-25.6-2.9-46-8.8-61.2c-5.9-15.2-15.3-26.4-28.4-33.6c-13.1-7.2-30.5-10.8-52.4-10.8h-34.4V730.8
			z"/>
		<linearGradient id="SVGID_19_" gradientUnits="userSpaceOnUse" x1="2655.4221" y1="175.5527" x2="2655.4221" y2="980.3525">
			<stop  offset="2.177339e-07" style="stop-color:#5C36BC"/>
			<stop  offset="1" style="stop-color:#422787"/>
		</linearGradient>
		<path class="st23" d="M3417.4,823.6v-648h120.8v648H3417.4z"/>
		<linearGradient id="SVGID_20_" gradientUnits="userSpaceOnUse" x1="2655.4221" y1="175.5527" x2="2655.4221" y2="980.3525">
			<stop  offset="2.177339e-07" style="stop-color:#5C36BC"/>
			<stop  offset="1" style="stop-color:#422787"/>
		</linearGradient>
		<path class="st24" d="M3769.4,831.6c-33.1,0-61.3-6-84.8-18c-23.5-12-41.2-29.5-53.2-52.4c-12-22.9-18-51.5-18-85.6V509.2
			c0-34.1,6-62.7,18-85.6c12-22.9,29.7-40.4,53.2-52.4c23.5-12,51.7-18,84.8-18c33.1,0,61.3,6,84.8,18c23.5,12,41.3,29.5,53.6,52.4
			c12.3,22.9,18.4,51.5,18.4,85.6v166.4c0,34.1-6.1,62.7-18.4,85.6c-12.3,22.9-30.1,40.4-53.6,52.4
			C3830.7,825.6,3802.5,831.6,3769.4,831.6z M3770.2,750c10.1,0,17.9-2.8,23.2-8.4c5.3-5.6,8.8-13.3,10.4-23.2
			c1.6-9.9,2.4-21.2,2.4-34V501.2c0-13.3-0.8-24.8-2.4-34.4c-1.6-9.6-5.1-17.3-10.4-23.2c-5.3-5.9-13.1-8.8-23.2-8.8
			c-10.1,0-17.9,2.9-23.2,8.8c-5.3,5.9-8.9,13.6-10.8,23.2c-1.9,9.6-2.8,21.1-2.8,34.4v183.2c0,12.8,0.9,24.1,2.8,34
			c1.9,9.9,5.5,17.6,10.8,23.2C3752.3,747.2,3760.1,750,3770.2,750z"/>
		<linearGradient id="SVGID_21_" gradientUnits="userSpaceOnUse" x1="2655.4221" y1="175.5527" x2="2655.4221" y2="980.3525">
			<stop  offset="2.177339e-07" style="stop-color:#5C36BC"/>
			<stop  offset="1" style="stop-color:#422787"/>
		</linearGradient>
		<path class="st25" d="M4144.6,980.4c-33.1,0-62.3-3.3-87.6-10c-25.3-6.7-44.9-16.9-58.8-30.8c-13.9-13.9-20.8-31.2-20.8-52
			c0-16,3.6-30.1,10.8-42.4c7.2-12.3,17.2-22.9,30-32c12.8-9.1,27.2-16.5,43.2-22.4l48,8c-6.4,5.3-12.3,10.7-17.6,16
			c-5.3,5.3-9.7,10.9-13.2,16.8c-3.5,5.9-5.2,12.8-5.2,20.8c0,12.3,6.5,21.3,19.6,27.2c13.1,5.9,35.1,8.8,66,8.8
			c26.7,0,47.2-2.5,61.6-7.6c14.4-5.1,21.6-14.5,21.6-28.4c0-7.5-1.9-13.6-5.6-18.4c-3.7-4.8-10-8.7-18.8-11.6
			c-8.8-2.9-20.9-5.2-36.4-6.8l-112-13.6c-23.5-3.2-42-11.6-55.6-25.2c-13.6-13.6-20.4-30.3-20.4-50c0-18.7,5.7-35.7,17.2-51.2
			c11.5-15.5,26.5-30.9,45.2-46.4l41.6,24.8c-5.3,5.9-10,11.9-14,18c-4,6.1-6,12.7-6,19.6c0,6.4,3.2,11.5,9.6,15.2
			c6.4,3.7,17.3,6.4,32.8,8l103.2,12.8c38.4,4.8,66.8,17.6,85.2,38.4c18.4,20.8,27.6,48,27.6,81.6c0,28.8-6.4,53.1-19.2,72.8
			c-12.8,19.7-33.2,34.7-61.2,44.8C4227.4,975.3,4190.5,980.4,4144.6,980.4z M4151.8,675.6c-35.2,0-64.7-6.5-88.4-19.6
			c-23.7-13.1-41.6-31.6-53.6-55.6s-18-52.5-18-85.6c0-34.7,6.1-64,18.4-88c12.3-24,30.3-42.3,54-54.8
			c23.7-12.5,52.9-18.8,87.6-18.8c33.1,0,60.9,6.7,83.6,20c22.7,13.3,39.9,32,51.6,56c11.7,24,17.6,52.8,17.6,86.4
			c0,33.1-5.6,61.5-16.8,85.2c-11.2,23.7-28,42.1-50.4,55.2C4215,669,4186.5,675.6,4151.8,675.6z M4151.8,601.2
			c8,0,14.5-1.6,19.6-4.8c5.1-3.2,8.9-8.3,11.6-15.2c2.7-6.9,4.5-15.9,5.6-26.8c1.1-10.9,1.6-24.1,1.6-39.6
			c0-15.5-0.5-28.7-1.6-39.6c-1.1-10.9-2.9-20-5.6-27.2c-2.7-7.2-6.5-12.4-11.6-15.6c-5.1-3.2-11.6-4.8-19.6-4.8s-14.7,1.6-20,4.8
			c-5.3,3.2-9.5,8.3-12.4,15.2c-2.9,6.9-4.9,16-6,27.2c-1.1,11.2-1.6,24.5-1.6,40c0,14.9,0.5,27.9,1.6,38.8
			c1.1,10.9,2.9,19.9,5.6,26.8c2.7,6.9,6.7,12.1,12,15.6C4136.3,599.4,4143.3,601.2,4151.8,601.2z M4279,434.8l-25.6-34.4
			c7.5-13.9,17.5-25.6,30-35.2c12.5-9.6,28.7-18.9,48.4-28l28.8,60.8c-5.3,1.6-13.5,4.7-24.4,9.2c-10.9,4.5-21.9,9.3-32.8,14.4
			C4292.5,426.6,4284.3,431,4279,434.8z"/>
	</g>
</g>
</svg>
