<?xml version="1.0" encoding="utf-8"?>
<!-- Generator: Adobe Illustrator 25.0.0, SVG Export Plug-In . SVG Version: 6.00 Build 0)  -->
<svg version="1.1" id="Layer_1" xmlns="http://www.w3.org/2000/svg" xmlns:xlink="http://www.w3.org/1999/xlink" x="0px" y="0px"
	 viewBox="0 0 282.1 98" style="enable-background:new 0 0 282.1 98;" xml:space="preserve">
<style type="text/css">
	.st0{fill:#fff;stroke:#000000;stroke-miterlimit:10;}
</style>
<path class="st0" d="M260.1,11.1c6.9,18.3,13.8,36.5,20.7,54.8c-24.5-9.7-49-19.4-73.6-29c5.3,10.8,10.7,21.7,16,32.5
	c-27.1-6.3-54.3-12.6-81.4-18.9c4.7,10.1,9.4,20.2,14.1,30.3c-23.6-6.8-47.3-13.6-70.9-20.4c-0.3,12.1-0.5,24.2-0.8,36.3
	C56.9,80.9,29.4,64.9,2,49C29.3,34.1,56.5,19.3,83.7,4.4c0.4,13.7,0.9,27.4,1.3,41.1c10.8,0,21.6,0,32.4,0
	c-4.3-8-8.6-15.9-12.9-23.9c25.1,2.5,50.3,5.1,75.4,7.6c-4.5-8.3-9-16.5-13.5-24.8C197.7,6.6,228.9,8.9,260.1,11.1z"/>
</svg>
