<?xml version="1.0" standalone="no"?><svg xmlns="http://www.w3.org/2000/svg" viewBox="0 0 1440 320"><path fill="#0099ff" fill-opacity="1" d="M0,0L40,5.3C80,11,160,21,240,69.3C320,117,400,203,480,213.3C560,224,640,160,720,160C800,160,880,224,960,234.7C1040,245,1120,203,1200,165.3C1280,128,1360,96,1400,80L1440,64L1440,320L1400,320C1360,320,1280,320,1200,320C1120,320,1040,320,960,320C880,320,800,320,720,320C640,320,560,320,480,320C400,320,320,320,240,320C160,320,80,320,40,320L0,320Z" data-darkreader-inline-fill="" style="--darkreader-inline-fill: #0074c2;"></path></svg>